<mxfile host="app.diagrams.net" agent="Mozilla/5.0 (Windows NT 10.0; Win64; x64) AppleWebKit/537.36 (KHTML, like Gecko) Chrome/135.0.0.0 Safari/537.36 Edg/135.0.0.0" version="26.2.14">
  <diagram id="R2lEEEUBdFMjLlhIrx00" name="Page-1">
    <mxGraphModel dx="1098" dy="614" grid="1" gridSize="10" guides="1" tooltips="1" connect="1" arrows="1" fold="1" page="1" pageScale="1" pageWidth="850" pageHeight="1100" math="0" shadow="0" extFonts="Permanent Marker^https://fonts.googleapis.com/css?family=Permanent+Marker">
      <root>
        <mxCell id="0" />
        <mxCell id="1" parent="0" />
        <mxCell id="PixNw26f1hE8OlnvSnt1-1" value="Students" style="rounded=0;whiteSpace=wrap;html=1;" vertex="1" parent="1">
          <mxGeometry x="40" y="220" width="170" height="60" as="geometry" />
        </mxCell>
        <mxCell id="PixNw26f1hE8OlnvSnt1-3" value="Admin" style="rounded=0;whiteSpace=wrap;html=1;" vertex="1" parent="1">
          <mxGeometry x="40" y="350" width="170" height="60" as="geometry" />
        </mxCell>
        <mxCell id="PixNw26f1hE8OlnvSnt1-4" value="Secure File Sharing System" style="ellipse;whiteSpace=wrap;html=1;aspect=fixed;" vertex="1" parent="1">
          <mxGeometry x="390" y="230" width="130" height="130" as="geometry" />
        </mxCell>
        <mxCell id="PixNw26f1hE8OlnvSnt1-5" value="System" style="rounded=0;whiteSpace=wrap;html=1;" vertex="1" parent="1">
          <mxGeometry x="640" y="265" width="170" height="60" as="geometry" />
        </mxCell>
        <mxCell id="PixNw26f1hE8OlnvSnt1-6" value="" style="edgeStyle=segmentEdgeStyle;endArrow=classic;html=1;curved=0;rounded=0;endSize=8;startSize=8;sourcePerimeterSpacing=0;targetPerimeterSpacing=0;entryX=0;entryY=0.392;entryDx=0;entryDy=0;entryPerimeter=0;" edge="1" parent="1" target="PixNw26f1hE8OlnvSnt1-4">
          <mxGeometry width="100" relative="1" as="geometry">
            <mxPoint x="210" y="230" as="sourcePoint" />
            <mxPoint x="270" y="270" as="targetPoint" />
            <Array as="points">
              <mxPoint x="220" y="230" />
              <mxPoint x="220" y="281" />
            </Array>
          </mxGeometry>
        </mxCell>
        <mxCell id="PixNw26f1hE8OlnvSnt1-9" value="" style="edgeStyle=segmentEdgeStyle;endArrow=classic;html=1;curved=0;rounded=0;endSize=8;startSize=8;sourcePerimeterSpacing=0;targetPerimeterSpacing=0;" edge="1" parent="1" source="PixNw26f1hE8OlnvSnt1-3" target="PixNw26f1hE8OlnvSnt1-4">
          <mxGeometry width="100" relative="1" as="geometry">
            <mxPoint x="160" y="350" as="sourcePoint" />
            <mxPoint x="310" y="390" as="targetPoint" />
            <Array as="points">
              <mxPoint x="210" y="295" />
            </Array>
          </mxGeometry>
        </mxCell>
        <mxCell id="PixNw26f1hE8OlnvSnt1-11" value="" style="edgeStyle=none;orthogonalLoop=1;jettySize=auto;html=1;rounded=0;entryX=1.015;entryY=0.385;entryDx=0;entryDy=0;entryPerimeter=0;exitX=0;exitY=0.25;exitDx=0;exitDy=0;" edge="1" parent="1" source="PixNw26f1hE8OlnvSnt1-5" target="PixNw26f1hE8OlnvSnt1-4">
          <mxGeometry width="100" relative="1" as="geometry">
            <mxPoint x="590" y="280" as="sourcePoint" />
            <mxPoint x="690" y="280" as="targetPoint" />
            <Array as="points" />
          </mxGeometry>
        </mxCell>
        <mxCell id="PixNw26f1hE8OlnvSnt1-21" value="" style="edgeStyle=none;orthogonalLoop=1;jettySize=auto;html=1;rounded=0;entryX=0;entryY=0.75;entryDx=0;entryDy=0;" edge="1" parent="1" target="PixNw26f1hE8OlnvSnt1-5">
          <mxGeometry width="100" relative="1" as="geometry">
            <mxPoint x="520" y="310" as="sourcePoint" />
            <mxPoint x="620" y="310" as="targetPoint" />
            <Array as="points" />
          </mxGeometry>
        </mxCell>
        <mxCell id="PixNw26f1hE8OlnvSnt1-29" value="Uploads/downloads file" style="text;html=1;align=center;verticalAlign=middle;resizable=0;points=[];autosize=1;strokeColor=none;fillColor=none;" vertex="1" parent="1">
          <mxGeometry x="220" y="255" width="150" height="30" as="geometry" />
        </mxCell>
        <mxCell id="PixNw26f1hE8OlnvSnt1-30" value="Manages" style="text;html=1;align=center;verticalAlign=middle;resizable=0;points=[];autosize=1;strokeColor=none;fillColor=none;" vertex="1" parent="1">
          <mxGeometry x="245" y="289" width="70" height="30" as="geometry" />
        </mxCell>
        <mxCell id="PixNw26f1hE8OlnvSnt1-31" value="Authenticate" style="text;html=1;align=center;verticalAlign=middle;resizable=0;points=[];autosize=1;strokeColor=none;fillColor=none;" vertex="1" parent="1">
          <mxGeometry x="532" y="255" width="90" height="30" as="geometry" />
        </mxCell>
        <mxCell id="PixNw26f1hE8OlnvSnt1-32" value="Generates Logs" style="text;html=1;align=center;verticalAlign=middle;resizable=0;points=[];autosize=1;strokeColor=none;fillColor=none;" vertex="1" parent="1">
          <mxGeometry x="522" y="304" width="110" height="30" as="geometry" />
        </mxCell>
      </root>
    </mxGraphModel>
  </diagram>
</mxfile>
